<?xml version="1.0" standalone="no"?>
<!DOCTYPE svg PUBLIC "-//W3C//DTD SVG 20010904//EN"
 "http://www.w3.org/TR/2001/REC-SVG-20010904/DTD/svg10.dtd">
<svg version="1.0" xmlns="http://www.w3.org/2000/svg"
 width="600.000000pt" height="138.000000pt" viewBox="0 0 600.000000 138.000000"
 preserveAspectRatio="xMidYMid meet">

<g transform="translate(0.000000,138.000000) scale(0.100000,-0.100000)"
fill="#000000" stroke="none">
<path d="M0 965 c0 -223 3 -405 6 -405 3 0 91 79 195 177 l190 176 29 -29 30
-29 -224 -205 -224 -205 -1 -107 -1 -108 450 0 450 0 0 168 0 169 -142 131
-142 131 -41 -36 c-22 -20 -73 -68 -113 -106 l-73 -70 -30 29 -30 30 142 132
143 131 52 -47 c29 -26 94 -85 144 -131 l90 -83 0 346 0 346 -450 0 -450 0 0
-405z"/>
<path d="M1110 775 l0 -305 55 0 55 0 0 305 0 305 -55 0 -55 0 0 -305z"/>
<path d="M1350 776 l0 -306 60 0 60 0 0 115 0 115 89 0 c100 0 133 9 174 48
43 40 57 75 57 139 0 76 -30 129 -90 163 -41 23 -57 25 -197 28 l-153 4 0
-306z m301 175 c21 -22 29 -39 29 -66 0 -27 -8 -44 -29 -66 -27 -27 -35 -29
-105 -29 l-76 0 0 95 0 95 76 0 c70 0 78 -2 105 -29z"/>
<path d="M1880 775 l0 -305 210 0 210 0 0 50 0 50 -150 0 -150 0 0 80 0 80
135 0 135 0 0 50 0 50 -135 0 -135 0 0 75 0 75 150 0 150 0 0 50 0 50 -210 0
-210 0 0 -305z"/>
<path d="M2536 808 c-61 -150 -116 -288 -123 -306 l-14 -33 62 3 62 3 20 53
20 52 128 0 128 0 19 -52 20 -53 62 -3 c56 -3 61 -1 56 15 -3 10 -57 146 -120
303 l-114 285 -48 3 -49 2 -109 -272z m197 0 c19 -51 38 -101 42 -110 6 -16
-1 -18 -83 -18 l-90 0 42 110 c22 60 44 110 47 110 4 0 22 -42 42 -92z"/>
<path d="M4846 1058 c-32 -45 -6 -98 48 -98 39 0 66 26 66 62 0 55 -83 81
-114 36z"/>
<path d="M3232 890 c-19 -4 -39 -13 -45 -19 -15 -15 -28 -14 -24 2 1 8 -16 13
-55 15 l-58 3 0 -211 0 -210 55 0 55 0 0 113 c0 178 19 214 106 204 38 -4 46
-1 75 29 27 28 30 36 19 48 -10 13 -75 38 -90 35 -3 -1 -20 -5 -38 -9z"/>
<path d="M3545 891 c-105 -27 -167 -105 -167 -211 0 -71 22 -120 74 -164 81
-69 212 -74 288 -9 l31 26 -32 33 c-30 31 -34 33 -50 18 -25 -23 -84 -34 -124
-23 -31 9 -75 50 -75 70 0 5 70 9 155 9 l155 0 0 48 c-1 78 -44 152 -110 187
-33 17 -108 26 -145 16z m120 -117 c44 -48 36 -54 -75 -54 -65 0 -100 4 -100
11 0 6 13 24 29 40 24 24 38 29 76 29 37 0 51 -5 70 -26z"/>
<path d="M4004 890 c-94 -22 -154 -104 -154 -212 0 -81 29 -141 89 -183 37
-26 52 -30 106 -30 50 0 70 5 94 23 l31 23 0 -108 0 -108 55 0 55 0 0 298 0
297 -55 0 c-48 0 -55 -2 -55 -20 0 -19 -1 -19 -32 -1 -40 23 -93 31 -134 21z
m129 -120 c33 -26 48 -79 36 -123 -36 -132 -219 -94 -206 43 9 86 105 131 170
80z"/>
<path d="M5242 890 c-18 -4 -42 -16 -52 -25 -19 -17 -20 -17 -20 3 0 20 -5 22
-55 22 l-55 0 0 -297 0 -298 52 1 53 2 3 100 3 101 42 -19 c79 -36 163 -16
224 53 102 117 46 319 -99 355 -52 13 -49 13 -96 2z m91 -121 c53 -41 55 -123
5 -176 -69 -73 -189 -4 -175 101 11 83 107 125 170 75z"/>
<path d="M5695 891 c-115 -28 -181 -155 -145 -280 16 -56 52 -100 104 -126 60
-30 109 -32 161 -5 47 24 45 24 45 5 0 -12 13 -15 55 -15 l55 0 0 210 0 210
-51 0 c-43 0 -52 -3 -56 -20 -5 -18 -7 -19 -22 -6 -15 14 -86 37 -106 35 -5
-1 -23 -4 -40 -8z m134 -127 c54 -45 50 -142 -6 -180 -86 -55 -190 25 -163
126 21 78 108 106 169 54z"/>
<path d="M4370 748 c0 -119 4 -150 19 -185 47 -102 203 -134 296 -61 52 41 65
87 65 246 l0 142 -54 0 -54 0 -4 -140 c-3 -128 -5 -141 -25 -161 -13 -14 -34
-22 -53 -22 -19 0 -40 8 -53 22 -20 20 -22 33 -25 161 l-4 140 -54 0 -54 0 0
-142z"/>
<path d="M4840 680 l0 -210 55 0 55 0 0 210 0 210 -55 0 -55 0 0 -210z"/>
<path d="M4025 210 c-3 -5 -2 -10 4 -10 5 0 13 5 16 10 3 6 2 10 -4 10 -5 0
-13 -4 -16 -10z"/>
<path d="M1104 95 c0 -50 1 -71 3 -48 2 23 2 64 0 90 -2 26 -3 8 -3 -42z"/>
<path d="M1172 93 l2 -88 5 73 6 74 48 -66 c27 -36 53 -68 58 -71 5 -4 8 29 7
82 l-2 88 -5 -75 -6 -75 -53 73 c-30 39 -55 72 -58 72 -2 0 -3 -39 -2 -87z"/>
<path d="M1360 166 c-25 -31 -8 -59 45 -75 38 -12 51 -21 53 -38 5 -35 -38
-42 -103 -18 l-20 8 20 -16 c30 -25 91 -22 109 5 21 30 7 49 -51 68 -71 22
-72 69 -1 70 15 0 30 -4 33 -10 3 -5 12 -10 18 -10 7 0 3 7 -7 15 -25 19 -80
19 -96 1z"/>
<path d="M1525 171 c30 -6 30 -7 36 -86 l5 -80 2 82 2 82 33 4 c17 2 1 4 -38
4 -44 0 -59 -2 -40 -6z"/>
<path d="M1664 95 c0 -50 1 -71 3 -48 2 23 2 64 0 90 -2 26 -3 8 -3 -42z"/>
<path d="M1737 173 l32 -4 4 -82 3 -82 2 82 2 82 33 4 c17 2 1 4 -38 4 -38 0
-56 -2 -38 -4z"/>
<path d="M1872 118 c-2 -78 17 -108 66 -108 47 0 64 28 59 101 l-3 64 -2 -66
c-2 -71 -13 -89 -53 -89 -38 0 -53 24 -60 99 l-6 66 -1 -67z"/>
<path d="M2065 171 c30 -6 30 -7 36 -86 l5 -80 2 82 2 82 33 4 c17 2 1 4 -38
4 -44 0 -59 -2 -40 -6z"/>
<path d="M2213 158 c-29 -33 -35 -57 -22 -95 12 -39 34 -53 82 -53 71 0 105
93 52 145 -32 33 -84 34 -112 3z m104 -10 c47 -44 18 -128 -46 -128 -46 0 -75
30 -74 76 2 68 71 98 120 52z"/>
<path d="M2460 95 l0 -85 45 0 c73 0 114 58 89 125 -9 23 -57 45 -99 45 l-35
0 0 -85z m105 50 c52 -51 15 -125 -61 -125 l-34 0 0 75 0 75 35 0 c25 0 44 -8
60 -25z"/>
<path d="M2645 168 c-3 -7 -4 -44 -2 -83 l2 -70 60 -1 c58 -1 58 -1 8 3 -53 4
-53 4 -53 38 0 33 1 34 48 38 l47 3 -47 2 c-48 2 -48 2 -48 36 0 35 0 35 53
39 l52 3 -58 2 c-38 1 -59 -2 -62 -10z"/>
<path d="M2870 95 l0 -85 63 2 62 2 -57 3 -58 4 0 34 c0 34 0 34 53 38 l52 3
-53 2 -53 2 3 33 c3 30 5 32 53 38 l50 6 -57 1 -58 2 0 -85z"/>
<path d="M3046 149 c-14 -17 -26 -39 -26 -50 0 -28 26 -75 45 -83 31 -12 83
-6 96 11 13 15 12 15 -8 5 -57 -31 -117 1 -117 63 0 27 6 43 23 56 25 20 76
25 86 9 3 -5 12 -10 18 -10 28 1 -30 30 -59 30 -24 0 -39 -8 -58 -31z"/>
<path d="M3225 155 c-53 -52 -19 -145 52 -145 45 0 62 9 79 42 45 86 -64 171
-131 103z m106 -4 c52 -42 17 -131 -52 -131 -63 0 -92 79 -47 127 26 28 67 30
99 4z"/>
<path d="M3412 93 l2 -88 5 75 6 74 53 -72 c30 -40 56 -72 58 -72 2 0 3 39 2
88 l-2 87 -5 -75 -6 -75 -53 73 c-29 39 -54 72 -57 72 -3 0 -4 -39 -3 -87z"/>
<path d="M3615 157 c-59 -50 -22 -147 55 -147 50 0 80 33 80 87 0 33 -6 46
-26 62 -35 27 -76 27 -109 -2z m105 -7 c45 -45 13 -130 -50 -130 -41 0 -70 31
-70 75 0 44 29 75 70 75 17 0 39 -9 50 -20z"/>
<path d="M3802 93 l2 -88 5 74 6 73 34 -47 34 -47 31 46 c17 25 34 46 38 46 4
0 9 -33 11 -72 l3 -73 2 88 c1 48 -1 87 -5 87 -5 0 -25 -23 -45 -51 l-37 -51
-36 51 c-20 28 -39 51 -41 51 -2 0 -3 -39 -2 -87z"/>
<path d="M4024 95 c0 -50 1 -71 3 -48 2 23 2 64 0 90 -2 26 -3 8 -3 -42z"/>
<path d="M4109 103 c-41 -93 -45 -105 -23 -76 13 18 26 23 64 23 38 0 51 -5
64 -23 22 -29 18 -17 -23 76 -19 42 -37 77 -41 77 -4 0 -22 -35 -41 -77z m64
14 c9 -23 17 -46 17 -50 0 -4 -18 -7 -40 -7 -22 0 -40 3 -40 7 0 13 35 93 40
93 3 0 13 -19 23 -43z"/>
<path d="M4325 157 c-4 -13 -5 -50 -3 -82 l3 -60 43 -3 c36 -3 47 1 73 28 26
26 30 36 25 63 -9 45 -48 77 -96 77 -33 0 -41 -4 -45 -23z m89 2 c33 -15 50
-57 37 -92 -12 -31 -39 -47 -80 -47 l-31 0 0 75 c0 73 1 75 25 75 13 0 35 -5
49 -11z"/>
<path d="M4510 95 l0 -85 63 2 62 2 -57 3 -58 4 0 34 c0 34 0 34 53 38 l52 3
-52 2 -53 2 0 34 c0 35 0 35 53 39 l52 3 -57 2 -58 2 0 -85z"/>
<path d="M4756 105 c-21 -43 -40 -83 -42 -87 -3 -4 -1 -8 4 -8 5 0 12 9 15 20
4 17 14 20 60 20 46 0 56 -3 65 -22 6 -13 11 -18 11 -13 0 6 -17 46 -38 90
l-39 80 -36 -80z m84 -37 c0 -5 -20 -8 -45 -8 -25 0 -45 2 -45 4 0 2 10 25 21
52 l22 48 23 -45 c13 -24 23 -47 24 -51z"/>
<path d="M4910 93 c0 -104 11 -105 13 -1 2 68 3 73 26 76 64 10 104 -35 61
-70 -14 -12 -30 -16 -46 -12 -15 4 -24 2 -24 -5 0 -6 8 -11 17 -11 9 0 33 -15
53 -32 l35 -33 -29 32 c-16 18 -28 34 -25 35 2 2 13 8 24 14 26 15 31 51 9 75
-12 14 -30 19 -66 19 l-48 0 0 -87z"/>
<path d="M5085 168 c-2 -7 -3 -44 -2 -83 l2 -70 60 -1 c58 -1 58 -1 8 3 -53 4
-53 4 -53 38 0 33 1 34 48 38 l47 3 -47 2 c-48 2 -48 2 -48 36 0 35 0 35 53
39 l52 3 -58 2 c-39 1 -59 -2 -62 -10z"/>
<path d="M5266 159 c-35 -28 -37 -95 -3 -127 25 -24 90 -31 102 -11 5 7 14 4
26 -7 19 -18 27 -6 9 12 -8 8 -8 19 0 38 13 36 3 72 -27 96 -33 26 -73 25
-107 -1z m104 -9 c31 -31 30 -85 -2 -113 -48 -41 -118 -7 -118 58 0 65 75 100
120 55z"/>
<path d="M5452 114 c-2 -79 12 -104 61 -104 48 0 67 31 65 108 l-1 67 -6 -66
c-7 -75 -22 -99 -61 -99 -39 0 -49 17 -53 95 l-3 70 -2 -71z"/>
<path d="M5634 95 c0 -50 1 -71 3 -48 2 23 2 64 0 90 -2 26 -3 8 -3 -42z"/>
<path d="M5696 172 c-9 -15 -5 -162 5 -162 5 0 9 13 9 30 0 29 2 30 43 30 24
0 48 5 55 12 18 18 14 63 -6 81 -19 18 -97 24 -106 9z m95 -12 c21 -12 25 -50
7 -68 -7 -7 -29 -12 -50 -12 l-38 0 0 45 c0 44 1 45 31 45 17 0 39 -5 50 -10z"/>
<path d="M5875 104 c-19 -42 -35 -82 -34 -88 0 -6 5 -1 11 11 9 20 19 23 63
23 44 0 54 -3 63 -22 6 -13 11 -18 11 -12 1 15 -67 164 -74 164 -3 0 -21 -34
-40 -76z m85 -36 c0 -5 -20 -8 -45 -8 -25 0 -45 2 -45 5 0 2 10 25 22 50 l22
46 23 -43 c12 -24 22 -46 23 -50z"/>
</g>
</svg>
